# xmcd CD database file
#
# Track frame offsets:
#	150
#	12647
#	21655
#	34464
#	51417
#	66056
#	79484
#	96008
#	111686
#	125903
#	139281
#	152860
#	164462
#	181689
#	195481
#	207350
#	221404
#	231477
#	245095
#	262270
#	272895
#
# Disc length: 3892 seconds
#
# Revision: 0
# Processed by: cddbd v1.5.2PL0 Copyright (c) Steve Scherf et al.
# Submitted via: CDex 1.51
#
DISCID=590f3215
DTITLE=Lowell Fulson - The Jewel Sessions 1969-71 (Disc-1)
DYEAR=1900
DGENRE=Blues
TTITLE0=Lady In The Rain
TTITLE1=Letter Home
TTITLE2=Too Soon
TTITLE3=Why Don't We Do It In The Road?
TTITLE4=Sleeper
TTITLE5=How Do You Want Your Man
TTITLE6=Don't Leave Me
TTITLE7=Thug
TTITLE8=Do You Feel It?
TTITLE9=Don't Destroy Me
TTITLE10=Lonesome Christmas Part. 1
TTITLE11=Lonesome Christmas Part. 2
TTITLE12=Bluesway
TTITLE13=My Baby
TTITLE14=Man Of Motion
TTITLE15=Teach Me
TTITLE16=Change Of Heart
TTITLE17=Every Second A Fool Is Born
TTITLE18=Look At You Baby
TTITLE19=Fed Up
TTITLE20=I've Got The Blues
EXTD=
EXTT0=
EXTT1=
EXTT2=
EXTT3=
EXTT4=
EXTT5=
EXTT6=
EXTT7=
EXTT8=
EXTT9=
EXTT10=
EXTT11=
EXTT12=
EXTT13=
EXTT14=
EXTT15=
EXTT16=
EXTT17=
EXTT18=
EXTT19=
EXTT20=
PLAYORDER=
